<svg id="trendyminds_logo" xmlns="http://www.w3.org/2000/svg" viewBox="0 0 1200 1200"><style>.st0{fill:#d18316}.st1{fill:#333c46}</style><path class="st0" d="M649.8 528.8h-67.9c-1.8 0-3.4 1.1-3.7 2.5l-23.8 79.1c0 3.2 1.6 3.2 5.4 3.5l21.9-.3-2.5 69.4c-.8 3.2 4.3 5.1 6.7 2.4l52.7-69c1-1 1.7-5-1.4-5h-15.8l31.9-78.5c.9-2-.9-4.1-3.5-4.1z"/><path class="st1" d="M600 727.2c-70.2 0-127.2-57.1-127.2-127.2 0-70.2 57.1-127.2 127.2-127.2s127.2 57 127.2 127.2-57 127.2-127.2 127.2zm0-235.2c-59.6 0-108 48.5-108 108s48.5 108 108 108 108-48.5 108-108-48.4-108-108-108z"/></svg>