<?xml version="1.0" encoding="utf-8"?>
<!-- Generator: Adobe Illustrator 21.0.2, SVG Export Plug-In . SVG Version: 6.00 Build 0)  -->
<svg version="1.1" id="trendyminds_logo" xmlns="http://www.w3.org/2000/svg" xmlns:xlink="http://www.w3.org/1999/xlink" x="0px"
	 y="0px" viewBox="0 0 1200 1200" style="enable-background:new 0 0 1200 1200;" xml:space="preserve">
<style type="text/css">
	.st0{fill:#D18316;}
	.st1{fill:#333C46;}
</style>
<g>
	<path class="st0" d="M649.8,528.8h-67.9c-1.8,0-3.4,1.1-3.7,2.5l-23.8,79.1c0,3.2,1.6,3.2,5.4,3.5l21.9-0.3l-2.5,69.4
		c-0.8,3.2,4.3,5.1,6.7,2.4l52.7-69c1-1,1.7-5-1.4-5h-15.8l31.9-78.5C654.2,530.9,652.4,528.8,649.8,528.8z"/>
	<g>
		<path class="st1" d="M600,727.2c-70.2,0-127.2-57.1-127.2-127.2c0-70.2,57.1-127.2,127.2-127.2S727.2,529.8,727.2,600
			C727.2,670.2,670.2,727.2,600,727.2z M600,492c-59.6,0-108,48.5-108,108s48.5,108,108,108s108-48.5,108-108S659.6,492,600,492z"/>
	</g>
</g>
</svg>
